<svg xmlns="http://www.w3.org/2000/svg" width="27.105" height="27.035" viewBox="0 0 27.105 27.035"><defs><style>.a{fill:none;stroke:#00030f;stroke-linecap:round;stroke-miterlimit:10;}</style></defs><g transform="translate(-234.424 -1019.494)"><path class="a" d="M296.5,1116.524v7.911a1.384,1.384,0,0,1-1.358,1.408H276.358a1.384,1.384,0,0,1-1.358-1.408v-13.027a1.384,1.384,0,0,1,1.358-1.408h18.786a1.384,1.384,0,0,1,1.358,1.408v5.115Z" transform="translate(-35.473 -79.815)"/><path class="a" d="M236.7,1033.366l-.4-.88-1.16-2.534a1.4,1.4,0,0,1,.626-1.858l16.777-7.971a1.354,1.354,0,0,1,1.8.705l1.16,2.534.97,2.12.857,1.873" transform="translate(0)"/><rect class="a" width="4" height="2" rx="1" transform="translate(254.029 1034.028)"/><line class="a" x2="10" transform="translate(243.029 1043.028)"/><line class="a" x2="6" transform="translate(243.029 1040.028)"/></g></svg>