<svg xmlns="http://www.w3.org/2000/svg" width="28.586" height="19.575" viewBox="0 0 28.586 19.575"><defs><style>.a{fill:#1a1a1a;}</style></defs><g transform="translate(-123.831 -401.862)"><circle class="a" cx="2.067" cy="2.067" r="2.067" transform="matrix(0.029, -1, 1, 0.029, 135.997, 421.316)"/><path class="a" d="M152.307,409.273a17.276,17.276,0,0,0-28.366,0,.633.633,0,0,0,1.045.714,16.011,16.011,0,0,1,26.276,0,.633.633,0,1,0,1.045-.714Z"/><path class="a" d="M406.018,733.064a11.761,11.761,0,0,0-9.74,5.091.633.633,0,0,0,1.045.713,10.6,10.6,0,0,1,17.39,0,.633.633,0,1,0,1.045-.713A11.761,11.761,0,0,0,406.018,733.064Z" transform="translate(-267.894 -325.799)"/><path class="a" d="M673.911,1064.263a6.4,6.4,0,0,0-5.3,2.77.633.633,0,0,0,1.045.714,5.185,5.185,0,0,1,8.505,0,.633.633,0,0,0,1.045-.714A6.4,6.4,0,0,0,673.911,1064.263Z" transform="translate(-535.788 -651.595)"/></g></svg>