<svg xmlns="http://www.w3.org/2000/svg" width="23.075" height="33.47" viewBox="0 0 23.075 33.47"><defs><style>.a{fill:none;stroke:#313131;stroke-linecap:round;stroke-linejoin:round;}</style></defs><g transform="translate(-1505.5 -149.5)"><path class="a" d="M1563.952,154.722c-.806-1.574-.558-4.722-.558-4.722h-1.478a6.775,6.775,0,0,1-.95,2.647,2.369,2.369,0,0,1-3.961,0,6.777,6.777,0,0,1-.95-2.647h-1.478s.31,3.148-.5,4.722a2.63,2.63,0,0,0,0,2.312c.378.769.838,1.7,1.283,2.808,1.046,2.587,6.151,2.563,7.244,0,.481-1.132.967-2.039,1.345-2.808A2.631,2.631,0,0,0,1563.952,154.722Z" transform="translate(-41.947)"/><path class="a" d="M1514.153,238.184a4.186,4.186,0,0,0-2.212,2.554c-1.193,3.549-2.209,10.83-5.941,13.918h0a18.354,18.354,0,0,0,5.526,2.791" transform="translate(0 -77.369)"/><path class="a" d="M1622.131,257.439a18.353,18.353,0,0,0,5.526-2.791h0c-3.733-3.088-4.749-10.37-5.941-13.918a4.184,4.184,0,0,0-2.214-2.555" transform="translate(-99.582 -77.361)"/><path class="a" d="M1551.293,260.845a26.225,26.225,0,0,0-1.013,6.977A32.973,32.973,0,0,1,1548,278.194l.109.055a12.79,12.79,0,0,0,11.664-.055h0a32.97,32.97,0,0,1-2.279-10.372,24.874,24.874,0,0,0-1.064-6.977" transform="translate(-36.849 -97.251)"/></g></svg>