<svg xmlns="http://www.w3.org/2000/svg" width="25.597" height="25.597" viewBox="0 0 25.597 25.597"><defs><style>.a{fill:#00030f;stroke:#00030f;stroke-width:0.25px;}</style></defs><g transform="translate(-239.376 -2323.206)"><path class="a" d="M252.175,2348.678a12.673,12.673,0,1,1,8.961-3.712A12.591,12.591,0,0,1,252.175,2348.678Zm0-24.569a11.9,11.9,0,1,0,8.411,3.484A11.817,11.817,0,0,0,252.175,2324.109Z" transform="translate(0 0)"/><g transform="translate(247.554 2328.579)"><path class="a" d="M398,2440.27h-2.9a.389.389,0,0,1-.389-.389v-15.006a.389.389,0,0,1,.389-.389h6a5.237,5.237,0,0,1,3.564,1.177,4.6,4.6,0,0,1,1.366,3.638,4.711,4.711,0,0,1-1.367,3.8,5.722,5.722,0,0,1-3.752,1.114h-2.519v5.671A.389.389,0,0,1,398,2440.27Zm-2.511-.778h2.122v-5.671a.389.389,0,0,1,.389-.389h2.908a4.981,4.981,0,0,0,3.254-.933h0a4,4,0,0,0,1.087-3.2,3.873,3.873,0,0,0-1.1-3.052,4.487,4.487,0,0,0-3.051-.984h-5.609Zm5.141-7.689H398a.389.389,0,0,1-.389-.389V2427.3a.389.389,0,0,1,.389-.389h2.63a2.733,2.733,0,0,1,1.8.555h0a2.3,2.3,0,0,1,.694,1.853,2.423,2.423,0,0,1-.682,1.88A2.613,2.613,0,0,1,400.634,2431.8Zm-2.241-.778h2.241a1.871,1.871,0,0,0,1.292-.4,1.7,1.7,0,0,0,.427-1.3,1.58,1.58,0,0,0-.415-1.256h0a1.994,1.994,0,0,0-1.3-.374h-2.241Z" transform="translate(-394.715 -2424.485)"/></g></g></svg>