<svg xmlns="http://www.w3.org/2000/svg" width="35.425" height="19.712" viewBox="0 0 35.425 19.712"><defs><style>.a{fill:none;stroke:#241f1f;stroke-miterlimit:10;}</style></defs><path class="a" d="M733.588,499.667c-.06.622.231,1.264,0,1.8,2.83-.117,3.627,1.861,5.227,3.353a24.105,24.105,0,0,0,7.023,4.523c1.867.8,4.607,1.154,4.138,3.669-1.676.252-3.108-.882-4.45-1.561a86.58,86.58,0,0,1-7.958-4.524c-1.232-.789-2.5-2.074-3.747-2.5a2.837,2.837,0,0,0-1.949,0c-1.3.416-2.577,1.692-3.824,2.5a74.747,74.747,0,0,1-10.068,5.616c-.676.309-1.54.868-2.34.47-.516-2.4,2.273-2.918,4.136-3.743a23.27,23.27,0,0,0,7.024-4.53c1.605-1.548,2.578-3.551,5.775-3.273.2-.448-.229-1.516,0-2.265.2-.66,1.409-.783,1.559-1.794.252-1.709-1.59-2.271-2.734-1.563-.741.464-.361,1.695-1.091,1.794-.863.122-.6-1.464-.156-2.1,1.567-2.262,6.1-.521,4.839,2.654-.271.675-.757.886-1.4,1.477" transform="translate(-715.092 -493.915)"/></svg>