<svg xmlns="http://www.w3.org/2000/svg" width="22.685" height="25.347" viewBox="0 0 22.685 25.347"><defs><style>.a{fill:#00030f;}</style></defs><path class="a" d="M3112.647,374.416h-4.311a3.558,3.558,0,0,0,1.768-2.972,2.725,2.725,0,0,0-2.924-2.551,4.168,4.168,0,0,0-2.712,1.064,1.249,1.249,0,1,1-2.427,0,4.162,4.162,0,0,0-2.712-1.062,2.721,2.721,0,0,0-2.924,2.546,3.558,3.558,0,0,0,1.768,2.972h-4.187A2.012,2.012,0,0,0,3092,376.45v3.127a1.977,1.977,0,0,0,1.988,1.993h.26v10.621a1.974,1.974,0,0,0,1.919,2.049h14.163a2.134,2.134,0,0,0,2.106-2.049V381.569h.21a2.019,2.019,0,0,0,2.038-1.993V376.45A2.054,2.054,0,0,0,3112.647,374.416Zm-7.518-3.687a3.144,3.144,0,0,1,2.052-.815,1.723,1.723,0,0,1,1.9,1.527c0,1.436-1.5,2.975-4.8,2.975h-.473A4.011,4.011,0,0,1,3105.129,370.73Zm-7.7.714a1.725,1.725,0,0,1,1.9-1.529,3.139,3.139,0,0,1,2.052.812,4.017,4.017,0,0,1,1.316,3.689h-.473C3098.93,374.416,3097.429,372.881,3097.429,371.444Zm-4.407,8.133V376.45a.99.99,0,0,1,.967-1.012h8.843v5.109h-8.843A.954.954,0,0,1,3093.022,379.577Zm2.248,12.614V381.569h7.562v11.649h-6.664A.954.954,0,0,1,3095.27,392.191Zm16.145,0a1.115,1.115,0,0,1-1.084,1.027h-6.477V381.569h7.561Zm2.249-12.614a1,1,0,0,1-1.016.971h-8.794v-5.109h8.794a1.032,1.032,0,0,1,1.016,1.012Z" transform="translate(-3092 -368.893)"/></svg>